# xmcd
#
# Track frame offsets: 
#        150
#        18502
#        35732
#        48922
#        62370
#        79067
#        95062
#        109877
#        123490
#        139907
#        156980
#        174160
#        188842
#        206357
#        220910
#        233815
#        251965
#        265247
#        281112
#        298075
#
# Disc length: 4148 seconds
#
# Revision: 0
# Processed by: cddbd v1.4PL0 Copyright (c) Steve Scherf et al.
# Submitted via: ExactAudioCopy v0.90a11
#
DISCID=2f103214
DTITLE=Crystal Gayle - Miss The Mississippi and These Days
DYEAR=1900
DGENRE=
TTITLE0=Half The Way
TTITLE1=The Other Side Of Me
TTITLE2=Room For One More
TTITLE3=Don't Go My Love
TTITLE4=Dancing The Night Away
TTITLE5=It's Like We Never Said Goodbye
TTITLE6=The Blue Side
TTITLE7=A Little Bit Of The Rain
TTITLE8=Danger Zone
TTITLE9=Miss The Mississippi And You
TTITLE10=Too Many Lovers
TTITLE11=If You Ever Change Your Mind
TTITLE12=Ain't No Love In The Heart Of The City
TTITLE13=Same Old Story (Same Old Song)
TTITLE14=Help Yourselves To Each Other
TTITLE15=Take It Easy
TTITLE16=I Just Can't Leave Your Love Alone
TTITLE17=You've Almost Got Me To Believin'
TTITLE18=Lover Man (aka Trouble Man)
TTITLE19=What A Little Moonlight Can Do
EXTD=
EXTT0=
EXTT1=
EXTT2=
EXTT3=
EXTT4=
EXTT5=
EXTT6=
EXTT7=
EXTT8=
EXTT9=
EXTT10=
EXTT11=
EXTT12=
EXTT13=
EXTT14=
EXTT15=
EXTT16=
EXTT17=
EXTT18=
EXTT19=
PLAYORDER=
